<?xml version="1.0" standalone="no"?><!DOCTYPE svg PUBLIC "-//W3C//DTD SVG 1.1//EN" "http://www.w3.org/Graphics/SVG/1.1/DTD/svg11.dtd"><svg t="1701275479419" class="icon" viewBox="0 0 1024 1024" version="1.1" xmlns="http://www.w3.org/2000/svg" p-id="8205" width="20" height="20" xmlns:xlink="http://www.w3.org/1999/xlink"><path d="M725.333333 512a84.352 84.352 0 0 1-55.04-20.864 42.666667 42.666667 0 0 0-57.856 2.304l-118.997333 118.997333a42.666667 42.666667 0 0 0-2.261333 57.898667c9.472 11.136 20.821333 29.696 20.821333 54.997333 0 47.061333-38.272 85.333333-85.333333 85.333334s-85.333333-38.272-85.333334-85.333334a42.666667 42.666667 0 0 0-42.666666-42.666666c-47.061333 0-85.333333-38.272-85.333334-85.333334s38.272-85.333333 85.333334-85.333333a84.48 84.48 0 0 1 54.997333 20.821333c16.896 14.464 42.112 13.44 57.898667-2.261333l118.997333-118.997333a42.666667 42.666667 0 0 0 2.261333-57.898667A84.48 84.48 0 0 1 512 298.666667c0-47.061333 38.272-85.333333 85.333333-85.333334s85.333333 38.272 85.333334 85.333334a42.666667 42.666667 0 0 0 42.666666 42.666666c47.061333 0 85.333333 38.272 85.333334 85.333334s-38.272 85.333333-85.333334 85.333333m38.314667-251.648A170.965333 170.965333 0 0 0 597.333333 128c-94.122667 0-170.666667 76.544-170.666666 170.666667 0 26.837333 6.570667 53.290667 18.901333 77.184l-69.717333 69.717333A168.405333 168.405333 0 0 0 298.666667 426.666667c-94.122667 0-170.666667 76.544-170.666667 170.666666a170.965333 170.965333 0 0 0 132.352 166.314667A170.965333 170.965333 0 0 0 426.666667 896c94.122667 0 170.666667-76.544 170.666666-170.666667 0-26.837333-6.570667-53.290667-18.901333-77.184l69.717333-69.717333A168.533333 168.533333 0 0 0 725.333333 597.333333c94.122667 0 170.666667-76.544 170.666667-170.666666a170.965333 170.965333 0 0 0-132.352-166.314667" fill="#ffac4b" p-id="8206"></path></svg>