<?xml version="1.0" standalone="no"?><!DOCTYPE svg PUBLIC "-//W3C//DTD SVG 1.1//EN" "http://www.w3.org/Graphics/SVG/1.1/DTD/svg11.dtd"><svg t="1701163053127" class="icon" viewBox="0 0 1024 1024" version="1.1" xmlns="http://www.w3.org/2000/svg" p-id="12363" width="20" height="20" xmlns:xlink="http://www.w3.org/1999/xlink"><path d="M522.666667 810.666667c229.76 0 416-16.96 416-37.909334 0-10.517333-8.896-15.445333-84.992-15.658666-8.149333-0.021333-49.706667-12.778667-58.773334-12.608-42.325333 0.725333-48.277333 12.416-104.384 22.208-42.88 7.466667-123.733333 6.058667-167.850666 6.058666-60.117333 0-106.965333-13.930667-145.344-11.434666-12.394667 0.810667-28.224-2.773333-34.517334 0-12.458667 5.461333-24.490667 1.621333-41.258666 0.490666-7.36-0.490667-11.136 22.293333-38.784 22.293334-15.488 0-23.253333-11.178667-36.650667-14.186667-7.530667-1.706667-6.741333-26.517333-16.576-25.109333-15.509333 2.218667-31.872 6.677333-42.773333 8.32-38.144 5.717333-60.096 12.437333-60.096 19.626666C106.666667 793.706667 292.906667 810.666667 522.666667 810.666667z" fill="#D8D8D8" p-id="12364"></path><path d="M103.125333 566.570667c40.576-5.546667 63.936-5.546667 70.122667 0 9.301333 8.362667 10.282667 28.16 43.733333 33.92 22.314667 3.84 47.296 5.184 74.944 4.053333l22.784 29.973333-52.138666 15.509334-13.269334 4.928-9.386666 3.733333c22.72 26.368 36.309333 45.568 40.725333 57.6 4.416 12.032 7.509333 29.909333 9.301333 53.632l15.808-7.872h51.669334l23.338666-13.056v7.424c94.186667-13.504 155.648-20.266667 184.384-20.266667 28.714667 0 95.146667 4.266667 199.317334 12.842667l30.442666-4.501333 43.52 11.925333 47.530667-4.48 28.586667-20.949333 6.272-5.141334c6.442667-14.464 9.664-25.642667 9.664-33.557333 0-7.893333-0.874667-23.018667-2.666667-45.333333l-28.757333-39.68-38.293334-9.365334v-33.557333L855.296 554.666667l-2.453333-4.352c25.621333-19.2 36.650667-37.653333 33.109333-55.381334-5.333333-26.581333-18.816-51.818667-42.325333-47.424-23.488 4.416-32.277333 18.474667-34.112 32.96-1.216 9.642667 0.682667 25.898667 5.653333 48.746667l-18.282667-6.549333-16.128-17.6-4.565333-20.437334-6.229333-13.482666-7.424-6.08-40.213334-17.557334-72.128-16.256h-128l-70.058666 8.789334-31.146667-24.149334-21.909333-39.616-41.664-68.309333-9.770667-7.509333-13.269333-6.72-10.026667 6.72-12.138667 18.304-16.874666 49.578666-5.397334-13.226666-50.048-36.352h-18.389333l-6.997333 9.408-4.736 50.752v12.202666l-26.88 14.421334-34.474667 34.496-18.218667 31.104-10.261333 67.989333H88.597333l14.528 27.434667z" fill="#FFAC4B" p-id="12365"></path><path d="M335.317333 288.490667c29.610667 5.269333 61.248 55.978667 97.237334 152.704a5.333333 5.333333 0 1 1-9.984 3.712l-5.888-15.488c-32.106667-82.752-60.501333-126.378667-83.050667-130.410667-12.010667-1.685333-27.2 33.898667-41.130667 106.176a5.333333 5.333333 0 0 1-10.474666-2.026667l2.794666-14.037333c14.08-67.84 29.12-101.333333 48.533334-100.8l1.962666 0.170667z" fill="#000000" p-id="12366"></path><path d="M387.498667 434.56c-1.408-27.221333-30.08-103.786667-44.096-108.821333-15.296-2.026667-29.397333 70.314667-28.650667 84.266666 0.725333 13.930667 12.288-8.789333 32.96-2.026666 20.672 6.762667 39.530667 37.76 39.786667 26.56z" fill="#FF8685" p-id="12367"></path><path d="M343.402667 325.738667c14.016 5.034667 42.666667 81.6 44.096 108.8-0.256 11.221333-19.114667-19.797333-39.786667-26.56-20.672-6.762667-32.234667 15.957333-32.96 2.005333-0.746667-13.930667 13.354667-86.272 28.650667-84.266667z m0.64 14.784l-1.109334-1.6-1.066666 2.048c-2.858667 5.525333-5.802667 13.781333-8.512 23.701333-2.538667 9.28-4.714667 19.690667-6.186667 28.288l-0.874667 5.696 0.981334-0.384a34.56 34.56 0 0 1 20.16-1.429333l3.584 1.002666c5.994667 1.941333 11.690667 5.248 17.664 9.898667l3.2 2.624c-7.104-25.344-20.117333-57.728-27.84-69.845333zM291.925333 373.589333a5.333333 5.333333 0 1 1 0 10.666667c-52.48 0-93.568 13.994667-123.52 41.877333-29.802667 27.776-44.16 65.28-43.029333 112.896a5.333333 5.333333 0 0 1-10.666667 0.256c-1.194667-50.56 14.293333-91.008 46.442667-120.96 32.042667-29.866667 75.733333-44.736 130.773333-44.736z" fill="#000000" p-id="12368"></path><path d="M219.52 313.237333c13.802667-8.192 39.082667 6.272 78.762667 42.389334l4.650666 4.266666-7.253333 7.808-8.896-8.064c-33.066667-29.44-54.506667-41.557333-61.802667-37.226666-8.170667 4.842667-11.733333 26.944-8.917333 65.429333l0.448 5.610667-10.624 0.896c-3.946667-46.250667-0.064-72.96 13.653333-81.109334zM143.424 533.824a5.333333 5.333333 0 0 1-0.042667 10.666667l-18.624 0.042666c-49.301333 0.341333-78.144 2.773333-80.405333 5.568-2.922667 3.626667-6.229333 30.784-4.672 56.213334 2.218667 35.946667 12.394667 67.904 31.658667 90.24 28.906667 33.514667 73.301333 45.994667 133.845333 37.162666a5.333333 5.333333 0 0 1 1.536 10.56c-63.872 9.322667-111.914667-4.181333-143.466667-40.768C25.813333 660.053333 19.84 563.605333 36.053333 543.424c5.525333-6.869333 34.474667-9.450667 93.717334-9.6h13.674666zM276.074667 495.936a5.333333 5.333333 0 1 1 9.109333 5.568c-7.552 12.373333-20.821333 20.202667-39.381333 23.616-18.346667 3.413333-34.816 1.194667-49.194667-6.677333a5.333333 5.333333 0 1 1 5.12-9.365334c12.138667 6.656 26.112 8.533333 42.133333 5.546667 15.786667-2.901333 26.410667-9.173333 32.213334-18.688z" fill="#000000" p-id="12369"></path><path d="M103.04 539.136c0.896 29.098667-4.117333 50.56-15.061333 64.384-10.944 13.824-28.074667 20.373333-51.392 19.626667v-73.642667l7.338666-5.546667 59.093334-4.821333z" fill="#000000" p-id="12370"></path><path d="M119.552 667.52a5.333333 5.333333 0 0 1 8.789333 6.037333c-6.997333 10.154667-17.365333 18.133333-31.018666 24-14.186667 6.058667-25.386667 7.018667-33.557334 2.133334a5.333333 5.333333 0 0 1 4.181334-9.728l1.301333 0.554666c4.586667 2.773333 12.522667 2.069333 23.893333-2.773333 11.861333-5.077333 20.629333-11.84 26.410667-20.245333zM347.434667 629.226667a5.333333 5.333333 0 0 1 1.258666 10.581333l-15.488 1.962667c-80.170667 10.837333-122.645333 28.309333-127.296 50.389333-7.722667 36.48 17.621333 83.093333 44.48 86.229333 16.554667 1.92 30.293333-3.562667 41.664-16.853333l2.581334-3.2 1.749333-2.261333 2.858667 0.192c43.989333 3.029333 70.037333-0.981333 77.269333-10.517334a5.333333 5.333333 0 0 1 8.490667 6.464c-9.813333 12.949333-36.266667 17.557333-80.106667 15.082667l-3.584-0.234667-1.066667 1.322667c-12.693333 14.848-28.437333 21.930667-46.805333 20.970667l-4.288-0.362667c-33.770667-3.968-62.592-56.917333-53.696-99.050667 6.378667-30.122667 56.96-49.536 151.978667-60.714666z" fill="#000000" p-id="12371"></path><path d="M832 529.536a5.333333 5.333333 0 0 1 7.552 0.064c13.525333 13.76 22.058667 24.96 25.6 33.92 2.794667 6.976 3.498667 14.869333 2.176 23.658667l-0.661333 3.562666 0.64 0.128c15.552 3.669333 27.477333 8.32 35.861333 14.08l2.986667 2.218667c8.469333 6.826667 15.893333 17.92 22.4 33.28l1.066666 2.56 2.346667 0.533333c21.632 5.056 35.84 12.544 42.496 22.912l1.408 2.453334c14.165333 27.989333 12.714667 78.144-7.509333 80.853333-10.325333 1.408-24-3.264-41.450667-13.738667l-5.44-3.413333-1.408 1.386667c-14.997333 14.08-29.589333 22.933333-43.776 26.389333l-4.266667 0.874667c-15.573333 2.645333-39.338667-0.618667-71.594666-9.642667l-5.546667-1.6-13.12 3.776a782.314667 782.314667 0 0 1-166.442667 26.901333l-15.616 0.704c-67.712 2.346667-146.986667-3.157333-237.802666-16.554666a5.333333 5.333333 0 1 1 1.557333-10.56c90.24 13.312 168.874667 18.773333 235.882667 16.426666a774.634667 774.634667 0 0 0 179.584-27.2l14.464-4.138666h3.008c34.410667 10.112 59.157333 13.866667 73.856 11.370666 13.269333-2.24 27.52-10.389333 42.624-24.618666l4.16-4.053334 3.072-3.093333 3.626666 2.432c19.861333 13.141333 34.474667 18.965333 43.2 17.792 9.536-1.28 10.730667-43.093333-0.576-65.493333-4.138667-8.170667-16.362667-14.976-36.821333-19.776l-7.701333-1.642667-1.066667-2.709333c-6.4-16.512-13.589333-27.861333-21.333333-34.112-6.997333-5.653333-18.602667-10.453333-34.773334-14.250667l-5.546666-1.216-5.589334-1.173333 1.557334-5.504c2.922667-10.346667 2.922667-18.944 0.170666-25.877334-2.901333-7.296-10.688-17.536-23.317333-30.378666a5.333333 5.333333 0 0 1 0.085333-7.530667z" fill="#000000" p-id="12372"></path><path d="M799.402667 419.242667c42.218667-31.637333 110.186667 1.450667 119.317333 57.493333 6.058667 37.226667-12.032 68.970667-53.333333 94.613333a5.333333 5.333333 0 1 1-5.610667-9.066666c37.888-23.530667 53.717333-51.285333 48.426667-83.84-7.893333-48.512-66.944-77.226667-102.4-50.666667-40.469333 30.336-30.72 93.866667 24.725333 100.266667 23.701333-2.944 31.509333-20.330667 23.338667-55.594667a5.333333 5.333333 0 1 1 10.389333-2.410667c9.450667 40.725333-1.344 64.725333-33.664 68.586667-67.136-7.552-78.805333-83.690667-31.189333-119.381333zM413.12 410.026667a5.333333 5.333333 0 0 1 7.104-2.538667c11.541333 5.504 21.482667 14.464 29.76 26.773333 8.149333 12.096 14.421333 26.986667 18.816 44.650667a5.333333 5.333333 0 1 1-10.346667 2.56c-4.117333-16.490667-9.898667-30.250667-17.301333-41.258667-7.274667-10.794667-15.786667-18.453333-25.514667-23.082666a5.333333 5.333333 0 0 1-2.517333-7.125334z" fill="#000000" p-id="12373"></path><path d="M446.72 435.093333c68.693333-13.504 136.704-16.554667 204.053333-9.130666 65.514667 7.210667 107.946667 21.824 127.445334 44.544l2.24 2.773333-8.533334 6.421333c-16.042667-21.269333-56.874667-35.925333-122.325333-43.136a657.962667 657.962667 0 0 0-187.306667 6.464l-13.504 2.517334-2.048-10.453334z" fill="#000000" p-id="12374"></path><path d="M213.376 471.829333c10.197333-5.888 16.085333-14.805333 13.141333-19.904-2.944-5.12-13.610667-4.48-23.808 1.429334-10.197333 5.888-16.085333 14.805333-13.141333 19.904 2.944 5.098667 13.610667 4.458667 23.808-1.429334z" fill="#FFFFFF" p-id="12375"></path></svg>