<?xml version="1.0" standalone="no"?><!DOCTYPE svg PUBLIC "-//W3C//DTD SVG 1.1//EN" "http://www.w3.org/Graphics/SVG/1.1/DTD/svg11.dtd"><svg t="1701163443002" class="icon" viewBox="0 0 1024 1024" version="1.1" xmlns="http://www.w3.org/2000/svg" p-id="57613" xmlns:xlink="http://www.w3.org/1999/xlink" width="40" height="40"><path d="M501.333 917.333c194.411 0 352-9.557 352-21.333 0-8.256-77.354-15.424-190.506-18.965-12.971-0.406-29.398 6.912-43.243 6.613-10.24-0.213-17.75-8.107-28.437-8.277a5650.987 5650.987 0 0 0-185.899 0.106c-9.237 0.15-16.597 9.472-25.515 9.686-9.664 0.213-20.8-8.683-30.037-8.427-118.507 3.435-200.363 10.773-200.363 19.264 0 11.776 157.59 21.333 352 21.333z" fill="#D8D8D8" p-id="57614"></path><path d="M354.432 281.515l5.056 8.064 41.11 7.488H452.5v-40.32l-6.058-56.704-17.216-36.48-8.918-12.224-4.117-9.067-18.944-3.776-8 3.776-18.09 14.165-11.67 43.606z m-42.155-5.91l-50.986 10.027-47.958 36.459-13.013 9.408-7.616-55.894-3.925-35.584 3.925-35.541 9.707-15.595 14.442-6.869 21.334 6.87 32.576 32.917 36.01 44.522z" fill="#FFF0CC" p-id="57615"></path><path d="M69.333 451.328l-1.77-26.432 3.733-14.293 4.757-6.486 41.11-3.306c11.52 10.752 12.373 22.912 2.56 36.522-9.792 13.611-26.603 23.552-50.39 29.867v-15.872z" p-id="57616"></path><path d="M551.872 322.09c-26.667 78.422-49.643 131.073-68.907 157.995-54.016 75.456-123.669 110.336-147.093 133.312-53.973 52.864-66.71 65.579-36.48 114.838 30.208 49.28 110.357 95.978 118.23 109.653 5.247 9.11 9.109 7.36 11.605-5.248h11.306c-3.392-11.605-3.392-17.408 0-17.408 5.056 0 112.79 21.867 259.84-10.453 8.256-4.374 13.376-9.344 15.36-14.891l52.715-31.339 56.576-16.213v-14.08l14.635-40.107 17.002-43.754c-14.762-34.774-20.416-60.032-17.002-75.734 3.413-15.722 16.021-26.368 37.845-31.936V512l15.68-12.928 15.36-31.147v-23.253l-15.36-32.384-10.581-6.059-5.099 27.072-11.05 16.256-3.734 2.859-26.688-37.227-58.71-40.96-64.213-27.157-72.896-15.573-88.32-9.408z" fill="#FFAE48" p-id="57617"></path><path d="M364.31 286.165c-16.79 2.902-81.473 18.475-103.04 35.926-21.547 17.45-63.937 49.536-58.369 90.389 5.568 40.853-0.106 77.867 49.451 92.907 49.536 15.04 170.005 3.584 216.448-65.366 30.976-45.973 42.837-79.36 35.584-100.16l-22.272-17.77-13.312-9.6 5.077-69.974-24.277-66.602-8.32-11.243-10.24-8.235 10.24 32.043 13.973 46.272-2.773 22.016v29.397l-2.88 8.064-3.413 2.838-22.315-2.838c-28.523-7.317-48.384-10.005-59.563-8.064z" fill="#FFAA56" p-id="57618"></path><path d="M402.688 133.163c29.675 0 60.33 39.04 72.725 98.133 3.051 14.613 3.414 38.613 1.195 72.256l-0.875 11.904 31.68 21.717a5.333 5.333 0 0 1 2.027 6.123l-0.64 1.28a5.333 5.333 0 0 1-6.144 2.027l-1.28-0.64-36.757-25.195 0.256-3.093c3.306-40.619 3.306-68.8 0.085-84.182-11.456-54.762-38.87-89.664-62.272-89.664-27.733 0-43.307 52.971-43.307 160.086a5.333 5.333 0 1 1-10.666 0c0-113.43 16.853-170.752 53.973-170.752z" p-id="57619"></path><path d="M230.357 300.33c35.414-24.277 76.907-33.834 124.267-28.714a5.333 5.333 0 0 1-1.152 10.603c-44.885-4.864-83.84 4.117-117.077 26.901-33.195 22.763-54.038 54.677-62.656 96.085a5.333 5.333 0 1 1-10.454-2.176c9.195-44.053 31.595-78.378 67.072-102.698z" p-id="57620"></path><path d="M200.256 181.461c22.485-17.792 61.44 13.398 119.893 90.944a5.333 5.333 0 1 1-8.512 6.4l-8.853-11.562c-49.195-63.318-82.048-88.384-95.893-77.419-16.256 12.885-17.323 60.245-1.344 140.672a5.333 5.333 0 0 1-10.454 2.07l-2.944-15.467c-13.653-75.307-11.456-120.107 8.107-135.616zM70.379 400.213c7.658-7.125 38.613-5.973 98.837 2.176a5.333 5.333 0 1 1-1.43 10.56l-12.117-1.578c-46.89-5.91-74.453-6.678-78.037-3.35-3.136 2.902-5.653 18.432-4.395 37.334 1.643 24.448 8.747 51.413 21.547 77.162a127.445 127.445 0 0 0 37.888 45.334c10.71 8.106 22.08 14.378 34.304 19.562l19.179 7.552a5.333 5.333 0 1 1-4.8 9.472c8.981 5.483-35.947-13.568-55.126-28.074a138.07 138.07 0 0 1-41.002-49.067c-25.259-50.816-29.44-113.493-14.848-127.083z" p-id="57621"></path><path d="M173.824 594.219c4.715 76.8 17.792 129.898 38.89 159.104 20.16 27.925 61.803 53.546 124.95 76.544l8.341 2.986-3.52 10.048c-69.696-24.405-115.84-52.053-138.432-83.349-21.653-29.973-34.944-81.707-40.256-155.37l-0.618-9.323 10.666-0.64z" p-id="57622"></path><path d="M296.597 738.005a5.333 5.333 0 0 1 7.339 1.75c16.725 27.349 35.413 67.093 45.355 96.426 3.84 11.307 3.968 19.136 1.941 28.203l-0.981 4.821c-0.086 0.619-0.043 0.918 0.064 1.152l0.128 0.256c0.64 1.024 2.474 2.475 6.101 4.374 19.99 10.56 64.043-2.347 67.179-22.87l0.17-2.304v-41.77a5.333 5.333 0 0 1 10.518-1.216l0.149 1.216v41.77c0 31.574-56.128 48.79-82.987 34.603-5.184-2.71-8.384-5.227-10.24-8.235-2.538-4.16-2.41-5.61-0.512-14.122 1.643-7.254 1.536-13.142-1.621-22.464-9.685-28.566-28.053-67.584-44.373-94.272a5.333 5.333 0 0 1 1.77-7.318z" p-id="57623"></path><path d="M714.667 784.768a5.333 5.333 0 0 1 3.562 6.656c-6.826 22.677-39.829 37.61-98.773 46.507-57.493 8.64-121.13 8.64-190.89 0a5.333 5.333 0 1 1 1.322-10.582c68.843 8.534 131.499 8.534 187.968 0 55.04-8.277 84.992-21.824 90.155-38.997a5.333 5.333 0 0 1 5.44-3.797l1.216 0.213z" p-id="57624"></path><path d="M477.163 316.757c111.146 0.342 190.293 8.726 237.717 25.28 99.285 34.667 140.608 66.24 162.475 148.203 11.328 42.517 4.693 94.848-14.4 151.765l-3.072 8.832c-11.734 32.683-28.118 67.456-32.128 72.171-0.768 0.896 5.973 44.587 7.978 50.453l0.299 0.619 15.488 3.776c11.84 2.88 17.664 4.95 20.63 8.747 12.373 15.786-18.646 37.824-60.545 33.173l-21.632-2.304a3633.493 3633.493 0 0 0-47.232-4.544l-38.869-3.35 0.853-10.623c40.47 3.306 76.48 6.72 108.054 10.24 19.904 2.197 34.56-0.854 43.605-7.254 5.547-3.968 7.573-8.49 7.36-8.746-0.64-0.854-4.992-2.475-11.99-4.288l-14.357-3.499c-4.906-1.28-7.253-2.112-8.938-3.797-5.099-5.12-13.611-59.883-8.832-65.515 3.264-3.84 21.909-43.733 33.216-77.483 18.496-55.104 24.896-105.557 14.208-145.642-20.736-77.696-59.392-107.243-155.691-140.864-44.437-15.51-118.827-23.766-222.976-24.619l-11.264-0.064 0.043-10.667z" p-id="57625"></path><path d="M884.992 400.896c4.63 0.213 9.237 3.904 13.781 9.856 9.11 11.947 15.574 29.867 15.083 45.547-0.704 21.397-10.347 40.277-28.65 56.448l-4.054 3.413-6.699-8.32c18.624-15.019 28.096-32.213 28.736-51.904 0.427-13.077-5.184-28.608-12.885-38.699a33.408 33.408 0 0 0-3.755-4.202l-0.469-0.406 0.213 2.326c1.152 18.133-6.826 32.81-23.317 43.562l-3.67 2.24-5.29-9.258c14.4-8.278 21.461-18.902 21.717-32.427l-0.064-3.456c-0.554-8.875 2.24-15.04 9.323-14.72zM671.744 819.563l10.667-0.022-0.128 14.827c-0.363 16.512-1.536 27.157-3.627 32.427-5.397 13.589-36.779 24.682-67.115 21.504-16.405-1.707-25.856-7.104-28.522-15.936-1.707-5.696-0.278-11.563 2.922-16.982l1.451-2.304c2.176-3.157 3.819-8.746 4.715-16.704l0.362-3.541 10.624 0.853c-0.832 10.112-2.624 17.814-5.568 23.254l-1.344 2.176c-2.517 3.669-3.754 7.488-2.944 10.176 1.152 3.84 6.827 7.082 19.414 8.405 26.133 2.73 52.864-6.72 56.106-14.827 1.664-4.224 2.71-15.701 2.944-33.749l0.043-9.557zM175.296 668.736l2.987 10.24c-33.92 9.899-53.163 18.304-55.296 22.827-3.52 7.424 5.226 23.829 18.986 31.146 9.259 4.907 26.347 6.592 50.987 4.779l5.803-0.49 0.981 10.623c-29.696 2.71-50.475 1.003-62.763-5.504-18.261-9.685-29.994-31.68-23.637-45.12 3.925-8.277 21.952-16.533 56.107-26.773l5.824-1.707z m242.688-526.997a5.333 5.333 0 0 1 7.125 2.453c21.782 44.63 32.726 77.781 32.726 99.84l-0.064 23.19c-0.235 33.642-1.643 35.2-9.814 35.2-3.84 0-13.098-2.347-29.184-7.19a5.333 5.333 0 1 1 3.072-10.24l7.467 2.219c6.89 1.984 12.053 3.349 15.275 4.01l0.917 0.171 0.213-0.853 0.491-3.627a91.093 91.093 0 0 0 0.213-2.261l0.406-6.72c0.213-5.035 0.298-11.094 0.32-21.398v-12.501c0-20.01-10.496-51.883-31.616-95.147a5.333 5.333 0 0 1 2.453-7.146zM146.283 498.965a5.333 5.333 0 1 1 8.277 6.72c-9.472 11.648-18.155 19.584-26.261 23.766-8.427 4.33-20.651 5.632-36.822 4.138a5.333 5.333 0 1 1 0.982-10.602c14.314 1.301 24.682 0.213 30.933-3.03 6.592-3.392 14.272-10.389 22.89-20.992zM213.333 416a32 32 0 1 0 64 0 32 32 0 1 0-64 0z" p-id="57626"></path><path d="M233.643 414.187a10.667 10.667 0 1 0 0-21.334 10.667 10.667 0 0 0 0 21.334z" fill="#FFFFFF" p-id="57627"></path></svg>