<?xml version="1.0" standalone="no"?><!DOCTYPE svg PUBLIC "-//W3C//DTD SVG 1.1//EN" "http://www.w3.org/Graphics/SVG/1.1/DTD/svg11.dtd"><svg t="1703077602201" class="icon" viewBox="0 0 1024 1100" version="1.1" xmlns="http://www.w3.org/2000/svg" p-id="5097" width="60" height="60" xmlns:xlink="http://www.w3.org/1999/xlink"><path d="M840.704 729.088s68.096-35.84-35.84-124.928c0 0 13.824-267.776-292.864-267.776S219.136 604.16 219.136 604.16c-103.936 89.088-35.84 124.928-35.84 124.928h657.408z" fill="#FAAF5E" p-id="5098"></path><path d="M840.704 734.72H183.296c-1.024 0-1.536 0-2.56-0.512s-21.504-11.776-24.576-36.864c-3.072-27.648 16.384-59.392 57.344-95.232 0-7.68 0-31.744 6.656-62.464 7.168-34.304 24.576-83.968 64-125.44C336.384 358.912 412.672 331.264 512 331.264s175.616 27.648 227.328 82.432c39.424 41.472 56.832 91.136 64 125.44 6.656 31.232 6.656 54.784 6.656 62.464 40.96 35.84 60.416 67.584 57.344 95.232-3.072 25.088-23.552 36.352-24.576 36.864-0.512 0.512-1.536 1.024-2.048 1.024z m-655.872-10.752h654.336c3.584-2.56 15.872-11.264 17.92-28.16 2.56-24.064-16.896-54.272-55.808-87.552-1.024-1.024-2.048-2.56-2.048-4.096 0-0.512 1.024-27.136-6.656-62.976-7.168-32.768-23.552-80.384-61.44-120.32-49.152-52.224-122.88-78.848-219.136-78.848-96.256 0-169.984 26.624-219.648 78.848-72.704 76.288-68.096 181.76-68.096 183.296 0 1.536-0.512 3.072-2.048 4.096-38.912 33.28-58.368 64-55.808 87.552 2.56 16.896 14.848 25.6 18.432 28.16z" fill="#683A32" p-id="5099"></path><path d="M736.768 653.824l-0.512-0.512s-40.448 70.144-73.216 35.84c-32.768-34.304-41.472 0.512-59.904-29.696-18.944-29.696-52.736-40.96-100.352-45.056 0 0 9.728-158.72 44.544-226.304-27.136-2.048-46.08 0.512-46.08 0.512s-18.432-2.56-44.544-0.512C476.16 458.24 471.04 614.4 471.04 614.4c-47.616 4.096-52.224 14.848-70.656 45.056-18.944 29.696-27.136-4.608-59.904 29.696-32.768 34.304-72.704-37.888-72.704-37.888s-8.704 64 65.024 78.848h338.944c67.584-14.336 67.584-68.608 65.024-76.288z" fill="#FFFFFF" p-id="5100"></path><path d="M332.8 734.72h-1.024c-40.448-8.192-57.344-30.72-64-48.128-6.656-17.408-5.632-32.768-5.12-35.84-4.608-92.16 15.36-161.792 58.88-207.872C371.2 390.144 440.32 381.952 476.672 381.952c13.312 0 22.528 1.024 25.088 1.536 2.56-0.512 11.776-1.536 25.6-1.536 36.352 0 105.472 7.68 155.136 60.416 43.52 46.08 63.488 115.712 58.88 207.872 0.512 3.072 1.536 18.432-5.12 35.84s-23.552 39.936-64 48.128h-1.024l-338.432 0.512z m143.872-342.016c-34.816 0-100.352 7.68-147.968 57.344-41.984 44.032-60.416 111.616-55.808 200.704v1.024c-0.512 2.56-6.656 58.88 60.416 72.704l337.408-0.512c67.072-13.824 60.928-70.656 60.416-72.704v-1.024c4.608-89.088-14.336-156.672-56.32-200.704-47.104-49.664-113.152-57.344-147.968-57.344-14.848 0-24.576 1.536-24.576 1.536h-1.536c0 0.512-9.216-1.024-24.064-1.024z" fill="#683A32" p-id="5101"></path><path d="M557.056 389.632s82.944-115.2 153.6-108.544 42.496 306.688 25.088 339.968" fill="#FAAF5E" p-id="5102"></path><path d="M735.744 626.688c-1.024 0-1.536 0-2.56-0.512-2.56-1.536-3.584-4.608-2.048-7.168 6.656-12.8 16.384-74.752 18.944-142.336 3.584-80.896-3.584-143.872-18.944-172.544-6.144-10.752-12.8-16.896-20.992-17.408-67.072-6.656-147.968 104.96-148.992 106.496-1.536 2.56-5.12 3.072-7.168 1.024-2.56-1.536-3.072-5.12-1.024-7.168 3.584-4.608 85.504-117.76 158.208-110.592 11.776 1.024 21.504 8.704 29.184 23.04 38.912 71.68 15.36 295.424 0 324.608-1.024 1.536-3.072 2.56-4.608 2.56z" fill="#683A32" p-id="5103"></path><path d="M729.088 557.568s-23.552-115.712-132.608-156.16c0 0 13.312-5.12 23.552-5.12 0 0-11.264-7.68-23.552-8.704 0 0 11.776-6.144 19.456-6.144 0 0-7.168-9.216-14.336-10.24-7.168-1.024 70.144-79.872 107.52-61.44 37.376 17.92 19.968 247.808 19.968 247.808z" fill="#FCE9C8" p-id="5104"></path><path d="M729.088 562.688c-2.56 0-4.608-1.536-5.12-4.096 0-0.512-6.144-28.672-25.088-61.44-17.408-30.208-49.664-70.656-104.448-90.624-2.048-1.024-3.584-2.56-3.584-5.12 0-2.048 1.536-4.096 3.584-5.12 0.512 0 3.584-1.024 7.68-2.56-2.048-0.512-4.096-1.024-6.144-1.024-2.56 0-4.096-2.048-4.608-4.096-0.512-2.56 0.512-4.608 2.56-5.632 1.024-0.512 5.632-2.56 10.752-4.608-1.536-1.024-3.072-1.536-4.096-2.048-3.072-0.512-5.12-3.072-5.12-6.144 0.512-7.68 24.064-29.184 35.84-37.888 17.408-13.824 43.008-30.72 65.024-30.72 5.632 0 10.752 1.024 14.848 3.072 10.752 5.12 17.408 20.992 22.016 50.176 3.072 21.504 5.12 50.176 5.12 84.992 0.512 59.392-4.096 117.248-4.096 117.76-0.512 2.56-2.56 5.12-5.12 5.12z m-116.736-160.768C661.504 424.96 691.2 462.848 708.096 491.52c7.68 13.312 13.312 26.112 17.408 36.864 1.024-22.528 2.56-55.296 2.56-88.576-0.512-104.96-14.848-122.88-20.992-125.952-3.072-1.536-6.656-2.048-10.24-2.048-30.208 0-76.8 41.984-88.064 56.32 6.144 3.584 10.752 9.216 11.264 10.24 1.024 1.536 1.536 3.584 0.512 5.632-1.024 2.048-2.56 3.072-4.608 3.072h-2.048c5.12 2.56 8.704 4.608 9.216 5.12 2.048 1.536 2.56 3.584 2.048 6.144-0.512 2.048-2.56 3.584-5.12 3.584-2.56-0.512-5.12-0.512-7.68 0z" fill="#683A32" p-id="5105"></path><path d="M447.488 389.632s-82.944-115.2-153.6-108.544c-70.656 6.656-42.496 306.688-25.088 339.968" fill="#FAAF5E" p-id="5106"></path><path d="M268.8 626.688c-2.048 0-3.584-1.024-4.608-3.072-15.36-29.184-38.912-252.928 0-324.608 7.68-14.336 17.408-22.016 29.184-23.04 72.704-7.168 155.136 105.984 158.208 110.592 1.536 2.56 1.024 5.632-1.024 7.168-2.56 1.536-5.632 1.024-7.168-1.024-1.024-1.024-81.92-112.64-148.992-106.496-8.192 1.024-15.36 6.656-20.992 17.408-15.36 28.672-22.528 91.136-18.944 172.544 3.072 68.096 12.288 129.536 18.944 142.336 1.536 2.56 0.512 5.632-2.048 7.168-1.024 1.024-2.048 1.024-2.56 1.024z" fill="#683A32" p-id="5107"></path><path d="M275.456 557.568s23.552-115.712 132.608-156.16c0 0-13.312-5.12-23.552-5.12 0 0 11.264-7.68 23.552-8.704 0 0-11.776-6.144-19.456-6.144 0 0 7.168-9.216 14.336-10.24 7.168-1.024-70.144-79.872-107.52-61.44-37.888 17.92-19.968 247.808-19.968 247.808z" fill="#FCE9C8" p-id="5108"></path><path d="M275.456 562.688s-0.512 0 0 0c-3.072 0-5.12-2.048-5.12-4.608 0-0.512-4.608-58.368-4.096-117.76 0-34.816 2.048-63.488 5.12-84.992 4.608-29.184 11.264-45.056 22.016-50.176 4.608-2.048 9.728-3.072 14.848-3.072 22.016 0 47.616 16.384 65.024 30.72 11.264 9.216 35.328 30.208 35.84 37.888 0 3.072-2.048 5.632-5.12 6.144-1.024 0-2.56 1.024-4.096 2.048 5.632 1.536 10.24 4.096 10.752 4.608 2.048 1.024 3.072 3.584 2.56 5.632-0.512 2.56-2.56 4.096-4.608 4.096s-4.096 0.512-6.144 1.024c4.096 1.024 7.168 2.048 7.68 2.56 2.048 0.512 3.584 2.56 3.584 5.12 0 2.048-1.536 4.096-3.584 5.12-54.784 20.48-87.04 60.928-104.448 90.624-18.944 32.768-25.088 61.44-25.088 61.44-0.512 1.536-2.56 3.584-5.12 3.584z m32.768-250.88c-4.096 0-7.68 0.512-10.24 2.048-6.144 3.072-20.48 20.992-20.992 125.952 0 33.28 1.024 66.048 2.56 88.064 4.096-10.24 9.728-23.04 17.408-36.864 15.872-28.16 46.08-66.048 95.232-89.088-2.56-0.512-5.12-0.512-7.168-0.512-2.048 0-4.096-1.536-5.12-3.584-0.512-2.048 0-4.608 2.048-6.144 0.512 0 3.584-2.56 9.216-5.12H389.12c-2.048 0-4.096-1.024-4.608-3.072-1.024-2.048-0.512-4.096 0.512-5.632 0.512-1.024 5.632-6.656 11.264-10.24-11.776-13.824-58.368-55.808-88.064-55.808z" fill="#683A32" p-id="5109"></path><path d="M398.336 723.968s78.336 43.008 177.664 0c0.512 0-104.448-38.4-177.664 0z" fill="#FFFFFF" p-id="5110"></path><path d="M485.888 748.032c-53.248 0-88.064-18.944-89.6-19.456-1.536-1.024-2.56-2.56-2.56-4.608s1.024-3.584 2.56-4.608c22.528-11.776 49.664-17.92 81.408-17.92 52.736 0 98.816 16.384 100.352 17.408 2.048 0.512 3.584 2.56 3.584 4.608s-1.024 4.096-3.072 5.12c-30.208 12.8-61.44 19.456-92.672 19.456z m-74.752-24.064c13.824 5.632 40.448 13.824 74.752 13.824 25.088 0 50.176-4.608 74.752-13.312-17.408-5.12-49.152-12.288-82.944-12.288-25.6 0-47.616 4.096-66.56 11.776zM535.04 633.344c0 20.48-22.016 54.272-49.664 54.272-27.648 0-49.664-34.304-49.664-54.272s22.016-22.016 49.664-22.016c27.648 0.512 49.664 2.048 49.664 22.016z" fill="#683A32" p-id="5111"></path><path d="M607.744 698.368s7.168 27.136-27.136 35.328-77.824 9.728-95.232-17.408c-16.896 27.136-60.928 25.6-95.232 17.408-34.304-7.68-27.136-35.328-27.136-35.328" fill="#FFFFFF" p-id="5112"></path><path d="M431.616 743.936c-15.36 0-30.72-2.56-42.496-5.12-12.8-3.072-22.016-8.704-27.136-17.408-7.168-11.776-4.096-23.552-4.096-24.064 0.512-2.56 3.584-4.608 6.656-3.584 2.56 0.512 4.608 3.584 3.584 6.656 0 0-2.048 8.704 2.56 15.872 3.584 6.144 10.752 10.24 20.48 12.8 20.992 4.608 71.68 12.8 89.6-15.36 1.024-1.536 2.56-2.56 4.608-2.56s3.584 1.024 4.608 2.56c17.92 28.16 68.608 19.968 89.6 15.36 9.728-2.048 16.896-6.656 20.48-12.8 4.608-7.68 2.56-15.872 2.56-16.384-0.512-2.56 1.024-5.632 3.584-6.144 2.56-0.512 5.632 1.024 6.144 3.584 0 0.512 3.072 12.8-4.096 24.064-5.12 8.704-14.336 14.336-27.136 17.408-26.624 6.144-73.216 12.288-96.256-13.824-12.288 14.336-32.768 18.944-53.248 18.944zM744.448 731.648c-2.048 0-4.096-1.536-5.12-3.584-6.656-17.92-6.656-33.792 0-47.616 10.24-22.016 32.768-30.208 33.28-30.208 2.56-1.024 5.632 0.512 6.656 3.072 1.024 2.56-0.512 5.632-3.072 6.656 0 0-19.456 7.168-27.648 25.088-5.12 11.264-5.12 24.576 0.512 39.424 1.024 2.56-0.512 5.632-3.072 6.656-0.512 0.512-1.024 0.512-1.536 0.512z" fill="#683A32" p-id="5113"></path><path d="M766.464 737.792s17.408 11.776 51.712 0c0 0 24.576 8.192 31.232-6.144 6.656-13.824-14.848-45.568-57.856-46.592-43.008-1.024-70.144 24.576-53.76 52.224 6.144 10.24 28.672 0.512 28.672 0.512z" fill="#FFFFFF" p-id="5114"></path><path d="M790.016 748.032c-11.776 0-19.456-3.072-23.552-4.608-3.584 1.536-10.752 3.584-17.408 3.584-9.216 0-13.312-4.096-15.36-7.68-7.168-11.776-7.168-24.064-1.536-34.816 8.704-15.872 30.72-25.6 56.832-25.6h3.072c30.72 1.024 50.688 15.872 59.392 30.208 5.12 8.704 6.656 17.408 3.072 24.064-2.56 5.12-8.192 11.264-21.504 11.264-6.144 0-11.776-1.536-14.336-2.048-10.24 4.096-19.968 5.632-28.672 5.632z m-23.552-15.36c1.024 0 2.048 0.512 3.072 1.024 0 0 6.656 4.608 19.968 4.608 8.192 0 17.408-1.536 27.136-5.12 1.024-0.512 2.048-0.512 3.584 0 0 0 6.144 2.048 12.8 2.048 9.216 0 11.264-4.096 11.776-5.12 1.536-3.072 0.512-8.704-3.072-14.336-6.656-11.264-24.064-24.064-50.688-25.088h-2.56c-22.528 0-40.96 7.68-47.616 19.968-4.096 7.168-3.584 15.872 1.024 24.064 1.024 1.536 3.072 2.56 6.144 2.56 7.168 0 15.872-3.584 15.872-3.584 1.536-1.024 2.048-1.024 2.56-1.024z" fill="#683A32" p-id="5115"></path><path d="M818.688 742.912h-1.024c-3.072-0.512-4.608-3.584-4.096-6.144 3.072-13.312-3.072-19.968-3.072-20.48-2.048-2.048-2.048-5.632 0.512-7.168 2.048-2.048 5.632-2.048 7.68 0.512 0.512 0.512 9.728 10.752 5.632 29.696-1.024 2.048-3.584 3.584-5.632 3.584z" fill="#683A32" p-id="5116"></path><path d="M254.464 658.432s45.056 14.336 25.6 67.584" fill="#FAAF5E" p-id="5117"></path><path d="M279.552 731.648c-0.512 0-1.024 0-2.048-0.512-2.56-1.024-4.096-4.096-3.072-6.656 6.144-15.872 6.144-29.696 1.024-40.96-7.168-14.848-23.04-19.968-23.04-20.48-2.56-1.024-4.096-4.096-3.584-6.656 1.024-2.56 4.096-4.096 6.656-3.584 1.024 0.512 19.968 6.656 29.184 25.6 6.656 13.824 6.656 30.208-0.512 49.152 0 2.56-2.048 4.096-4.608 4.096z" fill="#683A32" p-id="5118"></path><path d="M257.536 737.792s-17.408 11.776-51.712 0c0 0-24.576 8.192-31.232-6.144-6.656-13.824 14.848-45.568 57.856-46.592 43.008-1.024 70.144 24.576 53.76 52.224-6.144 10.24-28.672 0.512-28.672 0.512z" fill="#FFFFFF" p-id="5119"></path><path d="M233.984 748.032c-9.216 0-18.944-1.536-28.672-5.12-2.56 1.024-8.192 2.048-14.336 2.048-13.312 0-18.944-6.144-21.504-11.264-3.072-6.656-2.048-15.36 3.072-24.064 8.704-13.824 28.672-29.184 59.392-30.208h3.072c26.112 0 48.128 9.728 56.832 25.6 6.144 10.752 5.632 23.04-1.536 34.816-2.048 3.584-6.144 7.68-15.36 7.68-6.656 0-13.824-2.56-17.408-3.584-3.584 1.536-11.264 4.096-23.552 4.096z m-28.672-15.36c0.512 0 1.024 0 1.536 0.512 9.728 3.072 18.432 5.12 27.136 5.12 13.312 0 19.968-4.608 20.48-4.608 1.536-1.024 3.584-1.024 5.12-0.512 0 0 8.704 3.584 15.872 3.584 3.072 0 5.12-1.024 6.144-2.56 5.12-8.192 5.632-16.896 1.024-24.064-7.168-12.288-25.6-19.968-47.616-19.968h-2.56c-26.624 0.512-44.032 13.824-50.688 25.088-3.584 5.632-4.608 10.752-3.072 14.336 0.512 1.536 2.56 5.12 11.776 5.12 6.656 0 12.8-2.048 12.8-2.048h2.048z" fill="#683A32" p-id="5120"></path><path d="M205.312 742.912c-2.56 0-4.608-1.536-5.12-4.096-4.096-18.944 5.12-29.184 5.632-29.696 2.048-2.048 5.12-2.048 7.68-0.512 2.048 2.048 2.048 5.12 0.512 7.168-0.512 0.512-6.144 7.168-3.072 20.48 0.512 3.072-1.024 5.632-4.096 6.144-0.512 0.512-1.024 0.512-1.536 0.512z" fill="#683A32" p-id="5121"></path><path d="M766.464 742.912c-2.048 0-3.584-1.024-4.608-3.072-8.704-16.384 1.536-30.72 8.192-35.84 2.048-2.048 5.632-1.536 7.168 1.024 2.048 2.048 1.536 5.632-1.024 7.168-0.512 0.512-12.288 10.24-5.632 23.04 1.536 2.56 0.512 5.632-2.048 7.168 0 0.512-1.024 0.512-2.048 0.512z" fill="#683A32" p-id="5122"></path><path d="M256.512 742.912c-1.024 0-1.536 0-2.56-0.512-2.56-1.536-3.584-4.608-2.048-7.168 6.656-12.8-5.12-22.528-5.632-23.04-2.048-2.048-2.56-5.12-1.024-7.168 2.048-2.048 5.12-2.56 7.168-1.024 6.656 5.12 16.896 19.456 8.192 35.84-0.512 2.048-2.56 3.072-4.096 3.072z" fill="#683A32" p-id="5123"></path><path d="M485.376 720.896c-3.072 0-5.12-2.56-5.12-5.12V675.84c0-3.072 2.56-5.12 5.12-5.12 3.072 0 5.12 2.56 5.12 5.12v39.936c0.512 3.072-2.048 5.12-5.12 5.12z" fill="#683A32" p-id="5124"></path><path d="M604.16 611.84m-30.72 0a30.72 30.72 0 1 0 61.44 0 30.72 30.72 0 1 0-61.44 0Z" fill="#683A32" p-id="5125"></path><path d="M612.352 603.136m-8.704 0a8.704 8.704 0 1 0 17.408 0 8.704 8.704 0 1 0-17.408 0Z" fill="#FFFFFF" p-id="5126"></path><path d="M379.904 611.84m-30.72 0a30.72 30.72 0 1 0 61.44 0 30.72 30.72 0 1 0-61.44 0Z" fill="#683A32" p-id="5127"></path><path d="M388.096 603.136m-8.704 0a8.704 8.704 0 1 0 17.408 0 8.704 8.704 0 1 0-17.408 0Z" fill="#FFFFFF" p-id="5128"></path><defs><filter id="shadow" height="130%"><feDropShadow dx="5" dy="5" stdDeviation="10" flood-color="rgba(164, 170, 220, 0.5)"/></filter></defs><text x="20%" y="900" filter="url(#shadow)" dominant-baseline="middle" text-anchor="middle" font-family="@/assets/Images/Centaur.ttf" font-size="200" font-weight='bold' fill="rgb(176,100,123)">H</text><text x="40%" y="900" filter="url(#shadow)" dominant-baseline="middle" text-anchor="middle" font-family="@/assets/Images/Centaur.ttf" font-size="200" font-weight='bold' fill="rgb(176,100,123)">E</text><text x="60%" y="900" filter="url(#shadow)" dominant-baseline="middle" text-anchor="middle" font-family="@/assets/Images/Centaur.ttf" font-size="200" font-weight='bold' fill="rgb(176,100,123)">L</text><text x="80%" y="900" filter="url(#shadow)" dominant-baseline="middle" text-anchor="middle" font-family="@/assets/Images/Centaur.ttf" font-size="200" font-weight='bold' fill="rgb(176,100,123)">P</text></svg>