<?xml version="1.0" standalone="no"?><!DOCTYPE svg PUBLIC "-//W3C//DTD SVG 1.1//EN" "http://www.w3.org/Graphics/SVG/1.1/DTD/svg11.dtd"><svg t="1701163073575" class="icon" viewBox="0 0 1024 1024" version="1.1" xmlns="http://www.w3.org/2000/svg" p-id="12560" xmlns:xlink="http://www.w3.org/1999/xlink" width="40" height="40"><path d="M522.666667 810.666667c229.76 0 416-14.336 416-32s-186.24-9.664-416-9.664c-60.117333 0-121.514667-16.213333-159.872-14.101334-36.970667 2.026667-51.541333 22.4-76.8 20.992-24.213333-1.365333-30.4-17.344-49.621334-20.992-19.413333-3.712-51.797333 4.928-69.610666 7.189334C128.618667 766.933333 106.666667 772.608 106.666667 778.666667c0 17.664 186.24 32 416 32z" fill="#D8D8D8" p-id="12561"></path><path d="M329.6 233.066667c21.226667-6.912 66.624 38.890667 92.928 99.52 9.045333 20.821333 16.426667 61.461333 22.357333 122.304a5.333333 5.333333 0 0 1-10.624 1.045333l-1.621333-15.808c-5.525333-51.050667-12.202667-85.568-19.882667-103.296-24.32-56.021333-66.048-98.112-79.872-93.610667-22.890667 7.424-37.568 60.224-41.557333 157.610667a5.333333 5.333333 0 1 1-10.666667-0.426667l0.789334-16.192c5.12-91.989333 20.437333-142.144 48.128-151.146666zM382.933333 610.709333a5.333333 5.333333 0 0 1 1.770667 10.517334l-16 2.837333c-82.858667 15.424-127.402667 35.669333-133.354667 58.88-10.794667 42.069333 16.938667 95.104 49.642667 88.789333 23.36-4.48 36.266667-11.776 39.552-21.098666l0.533333-1.898667 1.173334-5.546667 5.482666 1.514667c33.642667 9.365333 58.730667 5.504 75.989334-11.2a5.333333 5.333333 0 1 1 7.402666 7.68c-18.133333 17.557333-43.264 22.976-74.837333 16.554667l-6.506667-1.472-1.237333 2.432c-6.058667 10.496-19.754667 17.856-40.597333 22.485333l-4.928 1.024c-42.282667 8.170667-74.453333-53.376-62.016-101.930667 7.872-30.634667 60.394667-53.077333 157.930666-69.568z" fill="#000000" p-id="12562"></path><path d="M797.717333 739.52a5.333333 5.333333 0 0 1 2.474667 10.368c-157.952 37.824-294.101333 41.408-408.469333 10.688a5.333333 5.333333 0 1 1 2.773333-10.304c112.469333 30.229333 246.869333 26.666667 403.2-10.752z" fill="#000000" p-id="12563"></path><path d="M861.482667 553.344l7.146666 15.402667 0.682667 1.344c0.981333 1.856 1.493333 2.432-0.768 3.029333 17.109333-4.416 30.72 6.762667 47.36 33.002667 1.728 2.709333 2.922667 5.333333 4.48 9.642666l2.325333 6.613334c3.349333 9.344 6.677333 14.336 12.928 17.386666l2.474667 1.066667c48.576 18.069333 54.698667 101.141333 23.146667 109.034667-10.922667 2.730667-18.922667-2.517333-27.178667-13.546667l-7.018667-9.536-4.053333 3.562667c-1.493333 1.429333-7.978667 7.509333-11.370667 10.517333l-1.002666 0.896c-10.88 9.344-21.013333 15.232-32.170667 17.237333-16.576 2.986667-41.066667 0.490667-73.706667-7.36l-7.125333-1.770666 2.645333-10.346667c34.858667 8.896 60.394667 11.84 76.288 8.981333 7.808-1.386667 15.402667-5.397333 23.573334-11.904l4.970666-4.202666 10.837334-10.069334c5.12-4.693333 7.872-6.613333 11.456-6.613333 3.626667 0 6.101333 2.005333 9.109333 5.802667l6.101333 8.405333c5.973333 7.957333 10.56 10.965333 16.042667 9.6 5.824-1.450667 11.946667-19.306667 10.538667-38.208-1.642667-22.186667-11.989333-40.149333-30.912-48.853333l-3.882667-1.642667c-10.453333-3.882667-15.957333-10.346667-20.416-21.376l-2.133333-5.738667-2.176-6.122666a31.381333 31.381333 0 0 0-2.773334-5.76c-13.44-21.162667-23.466667-30.037333-33.664-28.757334l-2.026666 0.384c-4.586667 1.173333-7.168-1.045333-10.176-6.272l-1.92-3.626666-7.317334-15.701334c-9.344-20.053333-18.453333-35.84-31.168-51.648-21.162667-26.261333-48.277333-46.485333-83.392-59.136-40.362667-14.549333-129.194667-19.413333-265.856-14.336l-31.573333 1.301334-0.469333-10.666667 31.850666-1.301333c137.941333-5.12 227.626667-0.213333 269.674667 14.976 37.013333 13.333333 65.728 34.730667 88.064 62.464 13.354667 16.597333 22.869333 33.066667 32.554667 53.845333z" fill="#000000" p-id="12564"></path><path d="M820.117333 317.653333c13.525333-13.226667 33.642667-0.853333 53.44 26.24 17.664 24.170667 32 56.128 35.52 80.789334 4.736 33.152-10.005333 73.621333-43.818666 121.642666l-4.522667 6.314667-8.618667-6.293333c35.541333-48.746667 50.88-88.896 46.4-120.149334-3.242667-22.784-16.853333-53.162667-33.578666-76.010666-16.234667-22.208-30.869333-31.232-37.333334-24.896-0.32 0.298667-0.064 2.858667 2.133334 8.32l4.416 9.6c2.986667 6.293333 6.442667 13.461333 7.253333 15.253333 9.6 21.098667 14.72 38.890667 14.784 57.813333 0.042667 16.32-11.370667 40.426667-34.133333 73.024l-4.117334 5.845334-8.682666-6.229334c24.256-33.813333 36.309333-58.304 36.266666-72.597333-0.064-15.232-3.797333-29.930667-10.965333-46.933333l-4.202667-9.322667c-2.88-6.058667-9.045333-18.922667-10.474666-22.421333-3.797333-9.322667-4.394667-15.424 0.234666-19.968zM284.522667 348.8l2.965333 10.24c-70.634667 20.48-118.848 39.466667-144.426667 56.789333C75.072 461.909333 20.096 533.333333 20.096 555.904c0 12.437333 4.373333 36.992 12.693333 60.373333 12.245333 34.432 31.488 64.042667 58.688 85.205334 19.178667 14.933333 62.229333 25.557333 128.682667 31.424l8.106667 0.682666-0.853334 10.624c-73.066667-5.845333-120.384-17.109333-142.485333-34.304-28.970667-22.549333-49.301333-53.845333-62.186667-90.069333C13.994667 595.328 9.386667 569.6 9.386667 555.904c0-26.944 57.024-101.056 127.68-148.906667 24.405333-16.533333 67.413333-34.090667 129.258666-52.821333l18.176-5.376z" fill="#000000" p-id="12565"></path><path d="M135.338667 667.904a5.333333 5.333333 0 0 1 8.682666 6.186667c-6.613333 9.28-13.290667 15.808-20.16 19.605333-13.930667 7.68-26.944 9.621333-37.397333 8.32l-2.346667-0.384A5.333333 5.333333 0 0 1 85.333333 691.114667l2.474667 0.32c8.341333 1.045333 19.114667-0.576 30.933333-7.082667 5.290667-2.922667 10.88-8.384 16.64-16.426667zM236.8 246.762667c18.624-3.84 39.189333 9.621333 62.336 39.381333l3.498667 4.586667-8.554667 6.4c-22.314667-29.952-40.917333-42.88-55.125333-39.936-12.266667 2.56-22.506667 38.933333-27.84 107.413333l-0.981334 14.122667-10.666666-0.661334 1.066666-14.826666c5.717333-74.24 16.853333-112.469333 36.266667-116.48z" fill="#000000" p-id="12566"></path><path d="M9.472 560.256L37.546667 512h9.066666c30.826667 12.224 46.229333 28.309333 46.229334 48.256s-18.432 46.378667-55.296 79.296L9.472 560.256z" fill="#000000" p-id="12567"></path><path d="M337.685333 278.485333c-12.544 8.533333-17.237333 34.346667-23.082666 59.477334-4.394667 18.922667-9.173333 47.04-4.586667 53.653333 4.586667 6.613333 28.181333 6.613333 45.226667 12.373333 24.362667 8.256 37.141333 27.626667 46.186666 21.44 15.36-10.453333 5.162667-54.826667-13.418666-91.84-18.56-37.034667-28.373333-70.08-50.346667-55.104z" fill="#FF8587" p-id="12568"></path><path d="M228.245333 460.458667c-31.765333 2.816-50.389333 10.88-55.893333 24.192-8.298667 19.989333 29.589333 96.341333 71.616 86.869333 42.026667-9.472 66.752-89.813333 54.4-100.437333-8.256-7.082667-31.616-10.624-70.122667-10.624z" fill="#656565" p-id="12569"></path><path d="M260.138667 487.552a5.333333 5.333333 0 1 1 8.661333 6.229333c-8.170667 11.392-21.205333 19.968-38.890667 25.770667-18.176 5.973333-31.893333 5.973333-41.066666-0.768a5.333333 5.333333 0 1 1 6.314666-8.576c5.76 4.224 16.213333 4.224 31.424-0.768 15.68-5.162667 26.816-12.501333 33.557334-21.888z" fill="#000000" p-id="12570"></path></svg>